PathFileType	3	(X/Y/Z)	D:\Jess\Healthy\Labelled\HA18\20250730\SRRun01.trc
DataRate	CameraRate	NumFrames	NumMarkers	Units	OrigDataRate	OrigDataStartFrame	OrigNumFrames
250.0	250.0	4	33	mm	250.0	36563	2501
Frame#	Time	C7			T10			CLAV			LSHO			RSHO			LASIS			RASIS			LPSIS			RPSIS			LILCR			RILCR			LGTR			LTHI			LLTHI			LLEP			LPSH			LLSH			LDSH			LLMAL			LTOE			L5TH			LHEE			RGTR			RTHI			RLTHI			RLEP			RPSH			RLSH			RDSH			RLMAL			RTOE			R5TH			RHEE			
		X1	Y1	Z1	X2	Y2	Z2	X3	Y3	Z3	X4	Y4	Z4	X5	Y5	Z5	X6	Y6	Z6	X7	Y7	Z7	X8	Y8	Z8	X9	Y9	Z9	X10	Y10	Z10	X11	Y11	Z11	X12	Y12	Z12	X13	Y13	Z13	X14	Y14	Z14	X15	Y15	Z15	X16	Y16	Z16	X17	Y17	Z17	X18	Y18	Z18	X19	Y19	Z19	X20	Y20	Z20	X21	Y21	Z21	X22	Y22	Z22	X23	Y23	Z23	X24	Y24	Z24	X25	Y25	Z25	X26	Y26	Z26	X27	Y27	Z27	X28	Y28	Z28	X29	Y29	Z29	X30	Y30	Z30	X31	Y31	Z31	X32	Y32	Z32	X33	Y33	Z33	

1564	146.248	1082.789276824371	1462.79391907681	-270.9649377858674	1005.4768296679	1224.508475982915	-267.0099425833126	1193.997120419757	1349.317905607495	-289.6612170230327	1122.92311597027	1418.545272549436	-436.8729830084968	1163.187189301582	1416.460351750253	-140.4063567213106	1158.655804350083	980.5945561665325	-396.9210230111845	1153.790574979458	958.6228452271077	-183.7661925110904	964.2856970273663	1025.639104241613	-307.5660248691303	965.0759447542038	1020.455301192713	-263.7584827588249	1085.215197091604	1060.194092737189	-446.4591636525705	1111.51236222416	1038.015932816326	-141.2355166190204	1085.248895252316	903.7323138962801	-486.1713027016754	1255.943193650601	803.4465846150005	-392.125594458648	1209.575613648445	660.4946809404425	-441.8054849459712	1239.3724638574	546.869836573536	-425.1811228033097	1286.997923670185	460.7187867161569	-390.1672779140893	1201.88881838809	317.5828713536496	-441.5865759652687	1267.124346996854	234.1910566015477	-390.5979591679691	1206.405735775268	130.4665899817183	-409.8987989225132	1353.989195970074	119.7513221159902	-426.6181592050423	1330.324385138848	86.07217717702783	-459.7945101926334	1155.631232168507	93.5409851507961	-350.3775510139243	1067.613935709509	871.4426328814533	-110.3842885205113	1114.64484512594	689.6156850191956	-220.3486363364971	988.7806610647574	616.4735402702883	-168.7260687853871	920.4100712015146	497.9010569541766	-189.9224271071105	924.0490703888505	424.5909282472466	-243.3753592549485	794.7586025257157	345.9092172246177	-176.0168382547361	800.5824895147339	230.7733880864742	-246.9939770365226	725.2899656671777	179.6857395086043	-212.6218395273461	790.3087227966213	62.8402896004561	-239.4824641689355	752.9430696479939	57.17752316135523	-195.1189739541674	640.0256723108381	211.1936861619577	-257.6250830467035	
1565	146.252	1082.793322877193	1463.91603521434	-271.3290956813275	1005.852372550286	1225.814694108777	-266.357889534894	1193.995025168477	1350.903425223376	-290.8053823433265	1122.508550151533	1419.731887168385	-437.246142594407	1163.5844591369	1418.195973296835	-141.7348056878253	1159.02708873699	982.116902755054	-396.6564452162347	1154.820765801602	959.3472206974906	-184.3049499815487	965.5211124288836	1027.702971976363	-307.4583037958145	966.398909316041	1022.55085508136	-263.4615820381708	1085.4251812194	1062.335880519426	-446.418313741318	1114.24985712506	1038.964982263887	-141.4418841233423	1086.136418337384	906.2014437910408	-486.2095627823206	1256.074993526575	804.7252547110835	-391.3604117979851	1207.80949038435	661.348395874653	-441.566142765532	1237.855040609073	546.5779628173013	-424.9903280992639	1287.530264193695	461.5420239669114	-389.3687280277762	1208.1545889016	315.507184564237	-441.47504832522	1275.629758002174	234.6571899198919	-389.4294332741882	1219.05778256091	128.7489760707845	-409.0138798450334	1367.085476961245	123.7763036945615	-424.0366273074205	1345.16360040407	89.03863241718402	-457.3340097911715	1169.086296344943	90.02200317941237	-349.9017196179286	1068.325520096459	872.7831457748674	-110.4712781758177	1113.5033158149	690.3647752992131	-220.723222258283	986.6575605138637	618.703364161538	-169.091142859539	917.6218596629917	500.5842513924482	-190.066517421824	920.2681931506469	427.1984898620124	-243.7299705274776	790.8393673976514	349.5246125890696	-175.7284777206268	795.905073981878	233.8499075910512	-246.1737218008154	720.4949045418382	182.9881101469341	-211.4761340636363	781.2753054066441	63.52710513123397	-239.2690382059937	743.9167748869023	58.91521264765204	-194.846856025204	636.5236105847357	217.4457255568478	-255.9015634865948	
1566	146.256	1082.779736896545	1464.879083576367	-271.7261211301168	1006.211950015271	1226.982507518726	-265.7630240228016	1193.980136798204	1352.340337696136	-291.9498245660803	1122.145132487186	1420.784274733852	-437.6445457219278	1163.925148646593	1419.75564878427	-143.0742803749493	1159.385842638164	983.5240503367608	-396.3960605284415	1155.826332422551	960.0223190051084	-184.8317298193895	966.7241650339159	1029.634870347356	-307.3682222042515	967.6808060662466	1024.558183638902	-263.2299857534007	1085.672973633474	1064.361372859913	-446.3973871177669	1116.852342720004	1039.952883708063	-141.6722772615007	1087.001223466542	908.517613639858	-486.1796187295465	1256.165708462743	805.5493236332012	-390.5623284615581	1205.976007932081	661.914547732072	-441.4822930386062	1236.34886349874	546.1120372094402	-424.840590341102	1287.961941948796	462.243715367423	-388.572498739256	1214.162016564723	313.6497091779249	-441.3497050267742	1283.688124219784	235.2835214892667	-388.2541181915643	1231.185314754311	127.3924301403228	-408.1053672507039	1379.439438869325	127.9483832173257	-421.3879038362885	1359.268087114662	92.25141562913855	-454.7959487141065	1182.008429209818	86.94713056331331	-349.4169509369116	1069.011699158568	874.0803063194402	-110.540362077564	1112.570023608075	691.0165555557675	-221.0336840009562	984.9318336263929	620.7149709352345	-169.4741857577515	915.357434311584	502.9758199541313	-190.2695516968288	916.93233220976	429.5528500053767	-244.187529499314	787.3489191275582	352.9640673824626	-175.5098586035309	791.4661851114172	236.792324030713	-245.4216604748206	715.9680243790922	186.225205658249	-210.3069904204472	772.3242511441966	64.34613936861396	-239.1887073520059	735.0633243932658	60.75766789750729	-194.6451236181037	633.3734272740312	223.6593082890962	-253.9667243616987	
1567	146.26	1082.750692762963	1465.680633564117	-272.1586000451492	1006.553758617757	1228.009322972819	-265.2289131203987	1193.955226629693	1353.625371284803	-293.0949768095135	1121.828888377263	1421.695008403827	-438.0709143804378	1164.214410206885	1421.137668294255	-144.4199679663936	1159.729143059883	984.8131242432511	-396.1507462592605	1156.801786971371	960.6430016578462	-185.3468436395608	967.8780120207696	1031.430127935047	-307.2889722571384	968.9108464295848	1026.468845281222	-263.0573869817027	1085.961324758323	1066.263085157176	-446.4007685133257	1119.309076089031	1040.973522034303	-141.9267585803764	1087.840122532011	910.6674719857957	-486.0893730059423	1256.194089729279	805.909313057722	-389.726647190354	1204.109972359156	662.1992987827979	-441.5523894416594	1234.889818832422	545.5044489646323	-424.7246283651256	1288.316577410287	462.8411187993776	-387.7819087654336	1219.873751312712	312.0182526376666	-441.2010553977251	1291.264554953227	236.0488751289701	-387.0766037039786	1242.71233393565	126.3653459022912	-407.1715274872543	1390.997613190526	132.2042051879007	-418.6922944546816	1372.565701530655	95.64605715007841	-452.199112516809	1194.313454539926	84.28773722156353	-348.9156276022396	1069.670678477393	875.3217931794949	-110.5963605707039	1111.853057734806	691.5700017386954	-221.3051545392543	983.6227409234116	622.4789406451835	-169.8809578903748	913.6136186225533	505.047702965552	-190.5325939257458	914.0355668907788	431.6267268639807	-244.7389028506221	784.2797127278002	356.205412273607	-175.3549950221292	787.2444491095783	239.5920482852499	-244.7459476179782	711.6928330091574	189.3844659460576	-209.1203912797513	763.4552297647671	65.31264666728819	-239.256744816842	726.3856368633235	62.70125450851372	-194.5267745439094	630.5522419157032	229.8114999180963	-251.8124577981515	
